<svg width="64" height="66" viewBox="0 0 64 66" fill="none" xmlns="http://www.w3.org/2000/svg">
<path d="M38.2955 22.8409C38.1136 21.0076 37.3333 19.5833 35.9545 18.5682C34.5758 17.553 32.7045 17.0455 30.3409 17.0455C28.7348 17.0455 27.3788 17.2727 26.2727 17.7273C25.1667 18.1667 24.3182 18.7803 23.7273 19.5682C23.1515 20.3561 22.8636 21.25 22.8636 22.25C22.8333 23.0833 23.0076 23.8106 23.3864 24.4318C23.7803 25.053 24.3182 25.5909 25 26.0455C25.6818 26.4848 26.4697 26.8712 27.3636 27.2045C28.2576 27.5227 29.2121 27.7955 30.2273 28.0227L34.4091 29.0227C36.4394 29.4773 38.303 30.0833 40 30.8409C41.697 31.5985 43.1667 32.5303 44.4091 33.6364C45.6515 34.7424 46.6136 36.0455 47.2955 37.5455C47.9924 39.0455 48.3485 40.7652 48.3636 42.7045C48.3485 45.553 47.6212 48.0227 46.1818 50.1136C44.7576 52.1894 42.697 53.803 40 54.9545C37.3182 56.0909 34.0833 56.6591 30.2955 56.6591C26.5379 56.6591 23.2652 56.0833 20.4773 54.9318C17.7045 53.7803 15.5379 52.0758 13.9773 49.8182C12.4318 47.5455 11.6212 44.7348 11.5455 41.3864H21.0682C21.1742 42.947 21.6212 44.25 22.4091 45.2955C23.2121 46.3258 24.2803 47.1061 25.6136 47.6364C26.9621 48.1515 28.4848 48.4091 30.1818 48.4091C31.8485 48.4091 33.2955 48.1667 34.5227 47.6818C35.7652 47.197 36.7273 46.5227 37.4091 45.6591C38.0909 44.7955 38.4318 43.803 38.4318 42.6818C38.4318 41.6364 38.1212 40.7576 37.5 40.0455C36.8939 39.3333 36 38.7273 34.8182 38.2273C33.6515 37.7273 32.2197 37.2727 30.5227 36.8636L25.4545 35.5909C21.5303 34.6364 18.4318 33.1439 16.1591 31.1136C13.8864 29.0833 12.7576 26.3485 12.7727 22.9091C12.7576 20.0909 13.5076 17.6288 15.0227 15.5227C16.553 13.4167 18.6515 11.7727 21.3182 10.5909C23.9848 9.40909 27.0152 8.81818 30.4091 8.81818C33.8636 8.81818 36.8788 9.40909 39.4545 10.5909C42.0455 11.7727 44.0606 13.4167 45.5 15.5227C46.9394 17.6288 47.6818 20.0682 47.7273 22.8409H38.2955Z" fill="#3943B7"/>
<g filter="url(#filter0_d_919_18)">
<path d="M53 39C53 41.8688 52.0688 44.5188 50.5 46.6688L58.4125 54.5875C59.1938 55.3688 59.1938 56.6375 58.4125 57.4188C57.6313 58.2 56.3625 58.2 55.5813 57.4188L47.6688 49.5C45.5188 51.075 42.8688 52 40 52C32.8188 52 27 46.1813 27 39C27 31.8188 32.8188 26 40 26C47.1813 26 53 31.8188 53 39ZM40 48C41.1819 48 42.3522 47.7672 43.4442 47.3149C44.5361 46.8626 45.5282 46.1997 46.364 45.364C47.1997 44.5282 47.8626 43.5361 48.3149 42.4442C48.7672 41.3522 49 40.1819 49 39C49 37.8181 48.7672 36.6478 48.3149 35.5559C47.8626 34.4639 47.1997 33.4718 46.364 32.636C45.5282 31.8003 44.5361 31.1374 43.4442 30.6851C42.3522 30.2328 41.1819 30 40 30C38.8181 30 37.6478 30.2328 36.5559 30.6851C35.4639 31.1374 34.4718 31.8003 33.636 32.636C32.8003 33.4718 32.1374 34.4639 31.6851 35.5559C31.2328 36.6478 31 37.8181 31 39C31 40.1819 31.2328 41.3522 31.6851 42.4442C32.1374 43.5361 32.8003 44.5282 33.636 45.364C34.4718 46.1997 35.4639 46.8626 36.5559 47.3149C37.6478 47.7672 38.8181 48 40 48Z" fill="white"/>
</g>
<defs>
<filter id="filter0_d_919_18" x="23" y="26" width="39.9984" height="40.0047" filterUnits="userSpaceOnUse" color-interpolation-filters="sRGB">
<feFlood flood-opacity="0" result="BackgroundImageFix"/>
<feColorMatrix in="SourceAlpha" type="matrix" values="0 0 0 0 0 0 0 0 0 0 0 0 0 0 0 0 0 0 127 0" result="hardAlpha"/>
<feOffset dy="4"/>
<feGaussianBlur stdDeviation="2"/>
<feComposite in2="hardAlpha" operator="out"/>
<feColorMatrix type="matrix" values="0 0 0 0 0 0 0 0 0 0 0 0 0 0 0 0 0 0 0.5 0"/>
<feBlend mode="normal" in2="BackgroundImageFix" result="effect1_dropShadow_919_18"/>
<feBlend mode="normal" in="SourceGraphic" in2="effect1_dropShadow_919_18" result="shape"/>
</filter>
</defs>
</svg>
